# xmcd
#
# Track frame offsets:
#	150
#	28617
#	75892
#	107602
#	132655
#	176390
#	211210
#	260645
#
# Disc length: 4021 seconds
#
# Revision: 1
# Processed by: cddbd v1.5.1PL0 Copyright (c) Steve Scherf et al.
# Submitted via: CDex 1.50Beta5
#
DISCID=620fb308
DTITLE=さまざまなアーティスト - THE BEST OF BALLAD
DYEAR=1900
DGENRE=Jazz
TTITLE0=ミスティー/D.マシューズ&マンハッタン・シンフォニー・オーケストラ
TTITLE1=ベイジン・ストリート・ブルース/マイルス・デイビス
TTITLE2=ネバー・レット・ミー・ゴー/エリス・マルサリス
TTITLE3=レフト・アローン/マル・ウォルドロン
TTITLE4=身も心も/デビッド・マレイ
TTITLE5=マイ・ファニー・バレンタイン/ハービー・ハンコック
TTITLE6=イエスタデイズ/ブランフォード・マルサリス
TTITLE7=いつか王子様が/マイルス・デイビス
EXTD=
EXTT0=
EXTT1=
EXTT2=
EXTT3=
EXTT4=
EXTT5=
EXTT6=
EXTT7=
PLAYORDER=
